<svg xmlns="http://www.w3.org/2000/svg" viewBox="0 0 24 24"><path fill="#6A7377" d="M18.914 21.936a3.045 3.045 0 01-.388-.025A19.094 19.094 0 017.501 16.5 19.094 19.094 0 012.089 5.474a3.037 3.037 0 01.73-2.394 2.994 2.994 0 012.247-1.016h3.027a2.981 2.981 0 012.954 2.49c.035.228.077.453.126.676a10.031 10.031 0 00.387 1.312 1.994 1.994 0 01-1.038 2.481l-.457.213a12.5 12.5 0 004.699 4.699l.213-.458a1.997 1.997 0 012.482-1.037 10.199 10.199 0 001.314.388c.222.049.446.091.671.124a2.981 2.981 0 012.492 2.955v3.027a2.995 2.995 0 01-1.016 2.247 3.036 3.036 0 01-2.006.755z"/></svg>