<svg xmlns="http://www.w3.org/2000/svg" viewBox="0 0 24 24"><path fill="#a5abad" d="M12.584 17.945a10.784 10.784 0 018.25-1.912A1 1 0 0022 15.046v-12a1 1 0 00-.834-.986c-.716-.125-1.44-.19-2.166-.193a12.883 12.883 0 00-7 2.057v14.21a1 1 0 00.584-.19z"/><path fill="#707070" d="M5 1.867c-.726.004-1.45.068-2.166.193A1 1 0 002 3.046v12a1 1 0 001.166.987c.605-.107 1.219-.162 1.834-.166 2.304-.002 4.55.725 6.416 2.078a1 1 0 00.584.188V3.923a12.883 12.883 0 00-7-2.056z"/><path fill="#a5abad" d="M21.166 18.06c-.716-.125-1.44-.19-2.166-.193a12.883 12.883 0 00-7 2.057v2.21a1 1 0 00.584-.19 10.784 10.784 0 018.25-1.911 1 1 0 10.335-1.972h-.003z"/><path fill="#707070" d="M5 17.867c-.726.004-1.45.068-2.166.193h-.003a1 1 0 00.335 1.973c.605-.107 1.219-.162 1.834-.166 2.304-.002 4.55.725 6.416 2.078a1 1 0 00.584.188v-2.21a12.883 12.883 0 00-7-2.056z"/></svg>