<svg xmlns="http://www.w3.org/2000/svg" viewBox="0 0 24 24"><path fill="#B5B9BB" d="M20 23H4a3.003 3.003 0 01-3-3V4a3.003 3.003 0 013-3h16a3.003 3.003 0 013 3v16a3.003 3.003 0 01-3 3z"/><circle cx="8" cy="4" r="1" class="prefix__prefix__uim-tertiary"/><circle cx="4" cy="4" r="1" class="prefix__prefix__uim-tertiary"/><circle cx="12" cy="4" r="1" class="prefix__prefix__uim-tertiary"/><path fill="#6A7377" d="M20 1H4a3 3 0 00-3 3v3h22V4a3 3 0 00-3-3zM4 5a1 1 0 110-2 1 1 0 010 2zm4 0a1 1 0 110-2 1 1 0 010 2zm4 0a1 1 0 110-2 1 1 0 010 2z"/></svg>